<?xml version="1.0" encoding="iso-8859-1"?>
<!-- Generator: Adobe Illustrator 19.0.0, SVG Export Plug-In . SVG Version: 6.00 Build 0)  -->
<svg version="1.1" id="Capa_1" xmlns="http://www.w3.org/2000/svg" xmlns:xlink="http://www.w3.org/1999/xlink" x="0px" y="0px"
	 viewBox="0 0 512 512" style="enable-background:new 0 0 512 512;" xml:space="preserve">
<circle style="fill:#005C83;" cx="256" cy="256" r="256"/>
<path style="fill:#00263F;" d="M288.734,509.925c115.224-14.707,206.514-106.01,221.198-221.241l-136.93-136.93L89.355,255.585
	l82.435,82.435l-31.481,23.48L288.734,509.925z"/>
<circle style="fill:#F7674F;" cx="256" cy="255.89" r="156.64"/>
<path style="fill:#C94A39;" d="M256,99.25v313.289c86.512,0,156.645-70.132,156.645-156.645S342.512,99.25,256,99.25z"/>
<path style="fill:#FFFFFF;" d="M148.167,319.441c0-8.564,0.587-16.041,1.769-22.435c1.178-6.391,3.101-12.008,5.771-16.849
	c2.667-4.84,6.173-9.059,10.519-12.66c4.343-3.599,9.681-6.95,16.011-10.054c3.971-1.984,7.974-3.878,12.009-5.679
	c4.032-1.797,7.633-3.877,10.798-6.237c3.165-2.356,5.74-5.056,7.727-8.099c1.984-3.04,2.979-6.731,2.979-11.078
	c0-5.585-1.676-10.021-5.027-13.312c-3.351-3.287-8.131-4.934-14.336-4.934c-3.601,0-6.981,0.497-10.146,1.489
	c-3.165,0.995-6.083,2.266-8.75,3.816c-2.67,1.554-5.12,3.258-7.354,5.12c-2.234,1.862-4.16,3.663-5.771,5.399l-15.639-16.383
	c1.611-1.984,3.971-4.25,7.075-6.795c3.101-2.542,6.795-4.934,11.078-7.168c4.282-2.234,9.152-4.125,14.615-5.679
	c5.46-1.55,11.479-2.327,18.059-2.327c7.197,0,13.559,0.995,19.083,2.979c5.521,1.987,10.176,4.748,13.963,8.285
	c3.785,3.538,6.638,7.791,8.564,12.753c1.923,4.966,2.886,10.426,2.886,16.384c0,5.71-0.87,10.644-2.606,14.801
	c-1.74,4.16-4.096,7.82-7.075,10.984c-2.979,3.165-6.455,5.958-10.426,8.378c-3.974,2.42-8.131,4.748-12.474,6.981
	c-4.718,2.359-8.814,4.625-12.288,6.795c-3.477,2.173-6.394,4.439-8.75,6.795c-2.359,2.359-4.128,4.841-5.306,7.447
	c-1.181,2.606-1.769,5.524-1.769,8.75h60.88v22.527h-96.069V319.441z"/>
<path style="fill:#E0E0E0;" d="M312.749,319.441v-29.975h-55.667v-22.341l63.487-79.87h17.128v79.684h16.383v22.527h-16.383v29.975
	H312.749z M282.216,266.939h33.326v-42.076L282.216,266.939z"/>
<g>
	<path style="fill:#FFDC00;" d="M422.645,255.585h-20c0,78.196-61.523,142.289-138.705,146.427l26.37-26.37L276.168,361.5
		l-49.854,49.853l49.853,49.854l14.143-14.143l-25.094-25.093C352.834,417.17,422.645,344.38,422.645,255.585z M254.599,411.353
		l1.401-1.401v2.802L254.599,411.353z"/>
	<path style="fill:#FFDC00;" d="M232.914,151.754l49.854-49.853l-49.853-49.854L218.771,66.19l23.335,23.335
		c-85.411,7.084-152.751,78.852-152.751,166.061h20c0-77.894,61.05-141.788,137.814-146.371l-28.397,28.397L232.914,151.754z"/>
</g>
<g>
	<path style="fill:#FFC000;" d="M422.645,255.585h-20c0,78.196-61.523,142.289-138.705,146.427l26.37-26.37L276.168,361.5
		L256,381.668v28.284v2.802v28.285l20.168,20.168l14.143-14.143l-25.094-25.093C352.834,417.17,422.645,344.38,422.645,255.585z"/>
	<polygon style="fill:#FFC000;" points="256,75.134 256,128.668 282.767,101.901 	"/>
</g>
<g>
</g>
<g>
</g>
<g>
</g>
<g>
</g>
<g>
</g>
<g>
</g>
<g>
</g>
<g>
</g>
<g>
</g>
<g>
</g>
<g>
</g>
<g>
</g>
<g>
</g>
<g>
</g>
<g>
</g>
</svg>
