<?xml version="1.0" encoding="iso-8859-1"?>
<!-- Generator: Adobe Illustrator 19.0.0, SVG Export Plug-In . SVG Version: 6.00 Build 0)  -->
<svg version="1.1" id="Layer_1" xmlns="http://www.w3.org/2000/svg" xmlns:xlink="http://www.w3.org/1999/xlink" x="0px" y="0px"
	 viewBox="0 0 512 512" style="enable-background:new 0 0 512 512;" xml:space="preserve">
<path style="fill:#B4B4B4;" d="M235.102,422.447L256,512h42.975c17.996,0,32.585-14.589,32.585-32.585v-36.07L235.102,422.447z"/>
<path style="fill:#E0E0E0;" d="M180.439,443.345v36.07c0,17.996,14.589,32.585,32.585,32.585H256v-89.553L180.439,443.345z"/>
<path style="fill:#FFBA00;" d="M256,0l-20.898,411.057l105.866-20.898c6.497-31.622,22.211-59.88,44.229-81.82l0.011,0.013
	c32.183-32.713,52.038-77.59,52.038-127.105C437.247,81.147,356.1,0,256,0z"/>
<path style="fill:#FDE09C;" d="M74.753,181.247c0,49.515,19.855,94.392,52.038,127.104l0.011-0.013
	c22.018,21.941,37.732,50.199,44.229,81.82L256,411.057V0C155.9,0,74.753,81.147,74.753,181.247z"/>
<path style="fill:#707070;" d="M345.464,390.159H256l-20.898,26.594L256,443.346h89.464c6.654,0,12.048-5.394,12.048-12.047v-29.092
	C357.512,395.551,352.118,390.159,345.464,390.159z"/>
<path style="fill:#B4B4B4;" d="M166.536,390.159c-6.654,0-12.047,5.394-12.047,12.047v29.092c0,6.653,5.394,12.047,12.047,12.047
	H256v-53.186h-89.464V390.159z"/>
<g>
	<path style="fill:#424242;" d="M256,136.359l-20.898,44.888L256,226.135c24.751,0,44.888-20.136,44.888-44.888
		S280.75,136.359,256,136.359z"/>
	<path style="fill:#424242;" d="M387.854,196.92v-31.347h-29.321c-2.576-16.917-9.257-32.501-18.986-45.707l20.77-20.77
		l-22.165-22.165l-20.77,20.77c-13.208-9.729-28.791-16.41-45.708-18.986V49.393H256l-10.449,39.095L256,108.877
		c39.904,0,72.369,32.464,72.369,72.369s-32.465,72.37-72.369,72.37l-10.449,18.361L256,313.101h15.673V283.78
		c16.917-2.576,32.5-9.257,45.708-18.986l20.77,20.77l22.165-22.165l-20.77-20.77c9.729-13.208,16.41-28.79,18.986-45.707h29.321
		V196.92z"/>
</g>
<g>
	<path style="fill:#707070;" d="M183.631,181.247c0-39.904,32.464-72.369,72.369-72.369V49.393h-15.673v29.321
		c-16.917,2.576-32.501,9.257-45.708,18.986l-20.77-20.77l-22.165,22.165l20.77,20.77c-9.729,13.208-16.41,28.79-18.986,45.708
		h-29.321v31.347h29.321c2.576,16.917,9.257,32.501,18.986,45.708l-20.77,20.77l22.165,22.165l20.77-20.77
		c13.208,9.729,28.791,16.41,45.708,18.986v29.321H256v-59.485C216.096,253.616,183.631,221.151,183.631,181.247z"/>
	<path style="fill:#707070;" d="M211.112,181.247c0,24.752,20.136,44.888,44.888,44.888v-89.776
		C231.248,136.359,211.112,156.495,211.112,181.247z"/>
</g>
<g>
</g>
<g>
</g>
<g>
</g>
<g>
</g>
<g>
</g>
<g>
</g>
<g>
</g>
<g>
</g>
<g>
</g>
<g>
</g>
<g>
</g>
<g>
</g>
<g>
</g>
<g>
</g>
<g>
</g>
</svg>
