<?xml version="1.0" encoding="utf-8"?>
<!-- Generator: Adobe Illustrator 21.0.2, SVG Export Plug-In . SVG Version: 6.00 Build 0)  -->
<svg version="1.1" id="Layer_1" xmlns:serif="http://www.serif.com/"
	 xmlns="http://www.w3.org/2000/svg" xmlns:xlink="http://www.w3.org/1999/xlink" x="0px" y="0px" viewBox="0 0 1920 1080"
	 style="enable-background:new 0 0 1920 1080;" xml:space="preserve">
<style type="text/css">
	.st0{fill:#F48576;}
	.st1{fill:#FFFFFF;}
	.st2{fill:#CC4233;}
	.st3{fill:#2A3B4E;}
	.st4{fill:#314A5E;}
	.st5{fill:#E6E9EF;}
	.st6{fill:#F3705A;}
	.st7{fill:#289A85;}
	.st8{fill:#FFD05C;}
	.st9{fill:#53C0EC;}
</style>
<path class="st0" d="M960,133.2c224.7,0,406.8,182.1,406.8,406.8S1184.7,946.8,960,946.8S553.2,764.7,553.2,540
	S735.3,133.2,960,133.2z"/>
<path class="st1" d="M911.7,402.9c-1.9,0-4-0.8-5.5-2.3c-29.7-29.7-29.7-78,0-107.5c3.1-3.1,8.1-3.1,11.1,0c3.1,3.1,3.1,8.1,0,11.1
	c-23.6,23.6-23.6,61.8,0,85.4c3.1,3.1,3.1,8.1,0,11.1C915.8,402.1,913.8,402.9,911.7,402.9L911.7,402.9z"/>
<path class="st1" d="M1008.3,402.9c-1.9,0-4-0.8-5.5-2.3c-3.1-3.1-3.1-8.1,0-11.1c23.6-23.6,23.6-61.8,0-85.4
	c-3.1-3.1-3.1-8.1,0-11.1c3.1-3.1,8.1-3.1,11.1,0c29.7,29.7,29.7,78,0,107.5C1012.3,402.1,1010.2,402.9,1008.3,402.9L1008.3,402.9z"
	/>
<path class="st1" d="M883.5,431.2c-1.9,0-4-0.8-5.5-2.3c-45.2-45.2-45.2-119,0-164.2c3.1-3.1,8.1-3.1,11.1,0c3.1,3.1,3.1,8.1,0,11.1
	c-39.1,39.1-39.1,102.8,0,141.9c3.1,3.1,3.1,8.1,0,11.1C887.5,430.6,885.4,431.2,883.5,431.2z"/>
<path class="st1" d="M1036.5,431.2c-1.9,0-4-0.8-5.5-2.3c-3.1-3.1-3.1-8.1,0-11.1c39.1-39.1,39.1-102.8,0-141.9
	c-3.1-3.1-3.1-8.1,0-11.1c3.1-3.1,8.1-3.1,11.1,0c45.2,45.2,45.2,119,0,164.2C1040.6,430.6,1038.6,431.2,1036.5,431.2z"/>
<path class="st1" d="M852.3,462.4c-1.9,0-4-0.8-5.5-2.3c-62.5-62.5-62.5-164,0-226.3c3.1-3.1,8.1-3.1,11.1,0c3.1,3.1,3.1,8.1,0,11.1
	c-56.3,56.3-56.3,147.9,0,204.2c3.1,3.1,3.1,8.1,0,11.1C856.4,461.5,854.4,462.4,852.3,462.4z"/>
<path class="st1" d="M1067.7,462.4c-1.9,0-4-0.8-5.5-2.3c-3.1-3.1-3.1-8.1,0-11.1c56.3-56.3,56.3-147.9,0-204.2
	c-3.1-3.1-3.1-8.1,0-11.1c3.1-3.1,8.1-3.1,11.1,0c62.5,62.5,62.5,164,0,226.3C1071.7,461.5,1069.6,462.4,1067.7,462.4L1067.7,462.4z
	"/>
<path class="st2" d="M602.8,734.7C671.7,861.1,805.8,946.8,960,946.8s288.3-85.7,357.2-212.1H602.8L602.8,734.7z"/>
<path class="st3" d="M996,574.2h-72l24.2-216.8c0.6-6,5.8-10.7,11.8-10.7c6.1,0,11.1,4.5,11.8,10.7L996,574.2z"/>
<rect x="1141.4" y="705.3" class="st3" width="59.6" height="30.2"/>
<rect x="719" y="705.3" class="st3" width="59.6" height="30.2"/>
<path class="st4" d="M1237.8,708.9H682.2c-3.1,0-5.6-2.6-5.6-5.7V568.1c0-3.1,2.6-5.7,5.6-5.7h555.6c3.1,0,5.6,2.6,5.6,5.7v135.1
	C1243.5,706.4,1240.9,708.9,1237.8,708.9L1237.8,708.9z"/>
<rect x="719" y="562.6" class="st5" width="481.9" height="100.1"/>
<path class="st6" d="M773.4,587.5c13.9,0,25.2,11.3,25.2,25.2c0,13.9-11.3,25.2-25.2,25.2c-13.9,0-25.2-11.3-25.2-25.2
	C748.2,598.7,759.5,587.5,773.4,587.5z"/>
<path class="st7" d="M928.5,600.1c7,0,12.6,5.6,12.6,12.6s-5.6,12.6-12.6,12.6s-12.6-5.6-12.6-12.6S921.6,600.1,928.5,600.1z"/>
<path class="st4" d="M979.9,600.1c7,0,12.6,5.6,12.6,12.6s-5.6,12.6-12.6,12.6c-7,0-12.6-5.6-12.6-12.6S972.9,600.1,979.9,600.1z"/>
<path class="st8" d="M1031.2,600.1c7,0,12.6,5.6,12.6,12.6s-5.6,12.6-12.6,12.6s-12.6-5.6-12.6-12.6S1024.2,600.1,1031.2,600.1z"/>
<path class="st9" d="M1082.5,600.1c7,0,12.6,5.6,12.6,12.6s-5.6,12.6-12.6,12.6s-12.6-5.6-12.6-12.6S1075.6,600.1,1082.5,600.1z"/>
<path class="st6" d="M1133.9,600.1c7,0,12.6,5.6,12.6,12.6s-5.6,12.6-12.6,12.6c-7,0-12.6-5.6-12.6-12.6S1126.9,600.1,1133.9,600.1z
	"/>
</svg>
