<?xml version="1.0" encoding="utf-8"?>
<!-- Generator: Adobe Illustrator 21.0.2, SVG Export Plug-In . SVG Version: 6.00 Build 0)  -->
<svg version="1.1" id="Capa_1" xmlns="http://www.w3.org/2000/svg" xmlns:xlink="http://www.w3.org/1999/xlink" x="0px" y="0px"
	 viewBox="0 0 512 512" style="enable-background:new 0 0 512 512;" xml:space="preserve">
<style type="text/css">
	.st0{fill:#D1D7E0;}
	.st1{fill:#FFFFFF;}
	.st2{fill:#E0AA24;}
	.st3{fill:#FFD24D;}
	.st4{fill:#999999;}
</style>
<path class="st0" d="M338.2,512H133.1c-21.8,0-39.6-17.8-39.6-39.6V39.6C93.4,17.8,111.3,0,133.1,0h205.2
	c21.8,0,39.6,17.8,39.6,39.6v432.7C377.9,494.2,360,512,338.2,512z"/>
<rect x="112.2" y="40.4" class="st1" width="246.9" height="403.8"/>
<g>
	<path class="st1" d="M272.7,24.4h-50.5c-2.3,0-4.1-1.9-4.1-4.1l0,0c0-2.3,1.9-4.1,4.1-4.1h50.5c2.3,0,4.1,1.9,4.1,4.1l0,0
		C276.8,22.6,274.9,24.4,272.7,24.4z"/>
	<circle class="st1" cx="198.6" cy="20.3" r="4.1"/>
	<path class="st1" d="M235.6,497.6c-10.8,0-19.5-8.8-19.5-19.5s8.8-19.5,19.5-19.5s19.5,8.8,19.5,19.5S246.4,497.6,235.6,497.6z
		 M235.6,462.5c-8.6,0-15.5,7-15.5,15.5s7,15.5,15.5,15.5s15.5-7,15.5-15.5S244.2,462.5,235.6,462.5z"/>
</g>
<path class="st1" d="M198.4,279.7h-26.1c-11.8,0-21.4-9.6-21.4-21.3v-74.7c0-11.8,9.6-21.3,21.4-21.3h103.1
	c11.8,0,21.4,9.6,21.4,21.3v74.7c0,11.8-9.6,21.3-21.4,21.3h-41.5l-35.5,28.9L198.4,279.7L198.4,279.7z"/>
<path class="st2" d="M275.4,166.3c9.6,0,17.4,7.8,17.4,17.4v74.7c0,9.6-7.8,17.4-17.4,17.4h-40.1h-2.8l-2.2,1.8l-27.9,22.7v-16.5v-8
	h-8h-22.1c-9.6,0-17.4-7.8-17.4-17.4v-74.7c0-9.6,7.8-17.4,17.4-17.4L275.4,166.3 M275.4,158.3H172.3c-13.9,0-25.4,11.4-25.4,25.4
	v74.7c0,13.9,11.4,25.4,25.4,25.4h22.1V317l40.9-33.3h40.1c13.9,0,25.4-11.4,25.4-25.4v-74.7C300.8,169.8,289.4,158.3,275.4,158.3
	L275.4,158.3z"/>
<path class="st3" d="M397.2,68.2H241.7c-11.8,0-21.4,9.6-21.4,21.4v111.1c0,11.8,9.6,21.4,21.4,21.4h71.2l65,52.9V222h19.4
	c11.8,0,21.4-9.6,21.4-21.4V89.6C418.6,77.8,409,68.2,397.2,68.2z"/>
<g>
	<rect x="251.3" y="111.8" class="st1" width="136.2" height="4"/>
	<rect x="251.3" y="145.2" class="st1" width="136.2" height="4"/>
	<rect x="251.3" y="178.6" class="st1" width="136.2" height="4"/>
</g>
<g>
	<rect x="145.6" y="346.6" class="st4" width="180.1" height="4"/>
	<rect x="145.6" y="371.8" class="st4" width="180.1" height="4"/>
	<rect x="145.6" y="397" class="st4" width="180.1" height="4"/>
</g>
</svg>
