<?xml version="1.0" encoding="utf-8"?>
<!-- Generator: Adobe Illustrator 21.0.2, SVG Export Plug-In . SVG Version: 6.00 Build 0)  -->
<svg version="1.1" id="Capa_1" xmlns="http://www.w3.org/2000/svg" xmlns:xlink="http://www.w3.org/1999/xlink" x="0px" y="0px"
	 viewBox="0 0 59 59" style="enable-background:new 0 0 59 59;" xml:space="preserve">
<style type="text/css">
	.st0{fill:#E8D5B2;}
	.st1{fill:#D75A4A;}
	.st2{fill:#CBB292;}
	.st3{fill:#4C8056;}
	.st4{font-family:'PTSans-Caption';}
	.st5{font-size:18.1443px;}
</style>
<g>
	<path class="st0" d="M30.2,5l-29,29.2c-1,1-1,2.6,0,3.6l20.5,20.5c1,1,2.6,1,3.6,0l28.2-29V5H30.2z M43.5,19c-2.2,0-4-1.8-4-4
		s1.8-4,4-4s4,1.8,4,4S45.7,19,43.5,19z"/>
	<path class="st1" d="M43.5,16c-0.3,0-0.5-0.1-0.7-0.3c-0.4-0.4-0.4-1,0-1.4l14-14c0.4-0.4,1-0.4,1.4,0s0.4,1,0,1.4l-14,14
		C44,15.9,43.8,16,43.5,16z"/>
	<g>
		<path class="st2" d="M42.2,31.3L31.6,41.9c-0.4,0.4-0.4,1,0,1.4c0.2,0.2,0.5,0.3,0.7,0.3s0.5-0.1,0.7-0.3l10.6-10.6
			c0.4-0.4,0.4-1,0-1.4S42.6,30.9,42.2,31.3z"/>
		<path class="st2" d="M47.2,27.7c-0.4-0.4-1-0.4-1.4,0c-0.2,0.2-0.3,0.4-0.3,0.7c0,0.3,0.1,0.5,0.3,0.7c0.2,0.2,0.4,0.3,0.7,0.3
			c0.3,0,0.5-0.1,0.7-0.3c0.2-0.2,0.3-0.4,0.3-0.7C47.5,28.2,47.4,27.9,47.2,27.7z"/>
		<path class="st2" d="M37.3,19.3c0.4-0.4,0.4-1,0-1.4c-0.4-0.4-1-0.4-1.4,0L25.3,28.5c-0.4,0.4-0.4,1,0,1.4
			c0.2,0.2,0.5,0.3,0.7,0.3s0.5-0.1,0.7-0.3L37.3,19.3z"/>
		<path class="st2" d="M33.8,31.3c0.2,0.2,0.5,0.3,0.7,0.3s0.5-0.1,0.7-0.3l7.1-7.1c0.4-0.4,0.4-1,0-1.4s-1-0.4-1.4,0l-7.1,7.1
			C33.4,30.3,33.4,30.9,33.8,31.3z"/>
		<path class="st2" d="M28.1,35.5l-1.4,1.4c-0.4,0.4-0.4,1,0,1.4c0.2,0.2,0.5,0.3,0.7,0.3s0.5-0.1,0.7-0.3l1.4-1.4
			c0.4-0.4,0.4-1,0-1.4S28.5,35.1,28.1,35.5z"/>
		<path class="st2" d="M28.8,16.4c-0.4-0.4-1-0.4-1.4,0L16.8,27c-0.4,0.4-0.4,1,0,1.4c0.2,0.2,0.5,0.3,0.7,0.3s0.5-0.1,0.7-0.3
			l10.6-10.6C29.2,17.5,29.2,16.8,28.8,16.4z"/>
		<path class="st2" d="M31.6,14.6c0.3,0,0.5-0.1,0.7-0.3c0.2-0.2,0.3-0.4,0.3-0.7c0-0.3-0.1-0.5-0.3-0.7c-0.4-0.4-1-0.4-1.4,0
			c-0.2,0.2-0.3,0.4-0.3,0.7s0.1,0.5,0.3,0.7C31.1,14.5,31.4,14.6,31.6,14.6z"/>
		<path class="st2" d="M22.5,31.3c-0.2,0.2-0.3,0.4-0.3,0.7c0,0.3,0.1,0.5,0.3,0.7c0.2,0.2,0.4,0.3,0.7,0.3c0.3,0,0.5-0.1,0.7-0.3
			c0.2-0.2,0.3-0.5,0.3-0.7c0-0.3-0.1-0.5-0.3-0.7C23.5,30.9,22.8,30.9,22.5,31.3z"/>
		<path class="st2" d="M32.3,34.1c0.2-0.2,0.3-0.4,0.3-0.7c0-0.3-0.1-0.5-0.3-0.7c-0.4-0.4-1-0.4-1.4,0c-0.2,0.2-0.3,0.5-0.3,0.7
			c0,0.3,0.1,0.5,0.3,0.7c0.2,0.2,0.5,0.3,0.7,0.3S32.2,34.3,32.3,34.1z"/>
	</g>
	<g>
		<text transform="matrix(0.7071 -0.7071 0.7071 0.7071 18.4081 49.7418)" class="st3 st4 st5">₽</text>
	</g>
</g>
</svg>
