<?xml version="1.0" encoding="iso-8859-1"?>
<!-- Generator: Adobe Illustrator 19.0.0, SVG Export Plug-In . SVG Version: 6.00 Build 0)  -->
<svg version="1.1" id="Capa_1" xmlns="http://www.w3.org/2000/svg" xmlns:xlink="http://www.w3.org/1999/xlink" x="0px" y="0px"
	 viewBox="0 0 512.001 512.001" style="enable-background:new 0 0 512.001 512.001;" xml:space="preserve">
<path style="fill:#FF507E;" d="M393.886,118.114L287.82,13.205c-17.607-17.607-46.032-17.607-63.64,0L118.114,118.114l42.426,42.426
	l-21.213,21.213c-17.606,17.606-17.607,46.032,0,63.64s46.034,17.606,63.64,0l21.213-21.213L256,256l27.789-6.576l97.582-97.582
	L393.886,118.114z"/>
<path style="fill:#F40F78;" d="M283.79,249.423l97.581-97.581l12.515-33.728L287.82,13.206C279.016,4.402,267.508,0,256,0v256
	L283.79,249.423z"/>
<path style="fill:#17ACE8;" d="M498.82,224.18L393.886,118.114L351.46,160.54l-21.213-21.213c-17.574-17.574-46.066-17.574-63.64,0
	s-17.574,46.066,0,63.64l21.213,21.213L256,256l9.944,31.157l93.475,93.475l34.467,13.254L498.82,287.82
	C516.393,270.246,516.393,241.754,498.82,224.18z"/>
<path style="fill:#1689FC;" d="M265.943,287.155l93.475,93.475l34.468,13.255L498.819,287.82c17.574-17.574,17.574-46.068,0-63.64
	L393.886,118.114L351.46,160.54l-21.215-21.213c-17.573-17.574-46.066-17.574-63.638,0c-5.356,5.356-8.516,11.829-10.607,18.594
	v26.451c2.091,6.766,5.251,13.239,10.607,18.594l21.213,21.213L256,256L265.943,287.155z"/>
<path style="fill:#32D736;" d="M351.459,351.459l21.213-21.213c17.574-17.574,17.574-46.066,0-63.64
	c-17.574-17.574-46.066-17.574-63.64,0L287.82,287.82L256,256l-25.869,4.656L123.426,367.361l-5.312,26.525L224.18,498.82
	c17.574,17.574,46.066,17.574,63.64,0l106.066-104.934L351.459,351.459z"/>
<path style="fill:#10BB67;" d="M287.82,498.819l106.066-104.934l-42.426-42.427l21.213-21.213c17.573-17.573,17.573-46.066,0-63.64
	c-17.574-17.573-46.066-17.573-63.64,0L287.82,287.82L256,256v255.999C267.516,511.999,279.033,507.607,287.82,498.819z"/>
<path style="fill:#FEDB41;" d="M245.393,372.673c-17.606,17.606-46.032,17.607-63.64,0L160.54,351.46l-42.426,42.426L13.205,287.82
	c-17.607-17.607-17.606-46.034,0-63.64l104.909-106.066l42.426,42.426l-21.213,21.213c-17.606,17.606-17.607,46.032,0,63.64
	s46.034,17.606,63.64,0l21.213-21.213L256,256l-31.82,31.82l21.213,21.213C263.001,326.64,263.001,355.065,245.393,372.673z"/>
<g>
</g>
<g>
</g>
<g>
</g>
<g>
</g>
<g>
</g>
<g>
</g>
<g>
</g>
<g>
</g>
<g>
</g>
<g>
</g>
<g>
</g>
<g>
</g>
<g>
</g>
<g>
</g>
<g>
</g>
</svg>
