<?xml version="1.0" encoding="utf-8"?>
<!-- Generator: Adobe Illustrator 21.0.2, SVG Export Plug-In . SVG Version: 6.00 Build 0)  -->
<svg version="1.1" id="Layer_1" xmlns="http://www.w3.org/2000/svg" xmlns:xlink="http://www.w3.org/1999/xlink" x="0px" y="0px"
	 viewBox="0 0 512 512" style="enable-background:new 0 0 512 512;" xml:space="preserve">
<style type="text/css">
	.st0{fill:#D1D7E0;}
	.st1{fill:#FFFFFF;}
	.st2{fill:#A5D76E;}
	.st3{fill:#F9F9F9;}
	.st4{fill:#E4EAF6;}
	.st5{fill:#959CB3;}
	.st6{fill:#D29B6E;}
	.st7{fill:#EFF2FA;}
	.st8{fill:#5B5D6E;}
	.st9{fill:#694B4B;}
	.st10{fill:#F0C087;}
</style>
<path class="st0" d="M291.3,512H114.8c-14.6,0-26.5-11.9-26.5-26.5V132.4c0-14.6,11.9-26.5,26.5-26.5h176.6
	c14.6,0,26.5,11.9,26.5,26.5v353.1C317.8,500.1,305.9,512,291.3,512z"/>
<path class="st1" d="M291.3,459H114.8c-4.9,0-8.8-4-8.8-8.8V167.7c0-4.9,4-8.8,8.8-8.8h176.6c4.9,0,8.8,4,8.8,8.8v282.5
	C300.1,455.1,296.2,459,291.3,459z"/>
<path class="st2" d="M300.1,250.8c-19.8-33-55.8-55.2-97.1-55.2s-77.3,22.2-97.1,55.2v116.3c19.8,33,55.8,55.2,97.1,55.2
	s77.3-22.2,97.1-55.2V250.8z"/>
<path class="st3" d="M220.7,141.2h-35.3c-4.9,0-8.8-4-8.8-8.8l0,0c0-4.9,4-8.8,8.8-8.8h35.3c4.9,0,8.8,4,8.8,8.8l0,0
	C229.5,137.3,225.6,141.2,220.7,141.2z"/>
<path class="st4" d="M211.9,503.2h-17.7c-9.8,0-17.7-7.9-17.7-17.7l0,0c0-9.8,7.9-17.7,17.7-17.7h17.7c9.8,0,17.7,7.9,17.7,17.7l0,0
	C229.5,495.3,221.6,503.2,211.9,503.2z"/>
<path class="st5" d="M150.1,141.2L150.1,141.2c-4.9,0-8.8-4-8.8-8.8l0,0c0-4.9,4-8.8,8.8-8.8l0,0c4.9,0,8.8,4,8.8,8.8l0,0
	C158.9,137.3,154.9,141.2,150.1,141.2z"/>
<polygon class="st6" points="224.6,336.2 224.6,317.2 181.4,317.2 181.4,336.2 203,358 "/>
<path class="st7" d="M257.5,339.7l-29.4-6.6c-0.4-0.1-0.9-0.3-1.2-0.5L203,345.8L180.1,332c-0.6,0.5-1.3,0.9-2.2,1.1l-29.4,6.6
	c-4.3,1-7.3,4.6-7.3,8.8v17.7c0,2.5,2.1,4.5,4.8,4.5h114.1c2.6,0,4.8-2,4.8-4.5v-17.7C264.8,344.3,261.8,340.6,257.5,339.7z"/>
<g>
	<path class="st4" d="M247.4,356.1l15.4-13.2c1.3,1.6,2,3.5,2,5.6v17.7c0,2.5-2.1,4.5-4.8,4.5h-16.6v-6.3
		C243.4,361.3,244.9,358.2,247.4,356.1z"/>
	<path class="st4" d="M158.7,356.1l-15.4-13.2c-1.3,1.6-2,3.5-2,5.6v17.7c0,2.5,2.1,4.5,4.8,4.5h16.6v-6.3
		C162.6,361.3,161.2,358.2,158.7,356.1z"/>
</g>
<polygon class="st8" points="209,370.8 197.1,370.8 198.6,345.8 207.5,345.8 "/>
<g>
	<path class="st4" d="M181.3,327.2l21.7,18.6c0,0-6.1,2.9-13.6,8.8c-1.5,1.2-3.9,0.7-4.7-1l-10.2-21.4l3.2-4.6
		C178.5,326.5,180.2,326.3,181.3,327.2z"/>
	<path class="st4" d="M224.8,327.2L203,345.8c0,0,6.1,2.9,13.6,8.8c1.5,1.2,3.9,0.7,4.7-1l10.2-21.4l-3.2-4.6
		C227.5,326.5,225.8,326.3,224.8,327.2z"/>
</g>
<path class="st9" d="M211.9,238.3h-17.7c-14.6,0-26.5,11.9-26.5,26.5V284c0,4.7,1.9,9.2,5.2,12.5l3.7,3.7h53l3.7-3.7
	c3.3-3.3,5.2-7.8,5.2-12.5v-19.2C238.3,250.2,226.5,238.3,211.9,238.3z"/>
<path class="st10" d="M175.6,283.8l1.1,25.4c0.2,4,2.1,7.6,5.2,10l9,6.9c2.3,1.7,5,2.7,7.8,2.7h8.7c2.8,0,5.6-0.9,7.8-2.7l9-6.9
	c3.1-2.4,5-6.1,5.2-10l1.1-25.4c0.4-9.3-6.8-17-15.9-17h-23C182.5,266.8,175.2,274.5,175.6,283.8z"/>
<g>
	<path class="st4" d="M344.3,141.2c-4.9,0-8.8-4-8.8-8.8c0-24.3-19.8-44.1-44.1-44.1c-4.9,0-8.8-4-8.8-8.8s4-8.8,8.8-8.8
		c34.1,0,61.8,27.7,61.8,61.8C353.1,137.3,349.2,141.2,344.3,141.2z"/>
	<path class="st4" d="M379.6,141.2c-4.9,0-8.8-4-8.8-8.8c0-43.8-35.6-79.4-79.4-79.4c-4.9,0-8.8-4-8.8-8.8s4-8.8,8.8-8.8
		c53.5,0,97.1,43.6,97.1,97.1C388.4,137.3,384.5,141.2,379.6,141.2z"/>
	<path class="st4" d="M414.9,141.2c-4.9,0-8.8-4-8.8-8.8c0-63.3-51.5-114.8-114.8-114.8c-4.9,0-8.8-4-8.8-8.8s4-8.8,8.8-8.8
		c73,0,132.4,59.4,132.4,132.4C423.7,137.3,419.8,141.2,414.9,141.2z"/>
</g>
</svg>
