<?xml version="1.0" encoding="UTF-8"?>
<!DOCTYPE svg PUBLIC "-//W3C//DTD SVG 1.1//EN" "http://www.w3.org/Graphics/SVG/1.1/DTD/svg11.dtd">
<!-- Creator: CorelDRAW 2017 -->
<svg xmlns="http://www.w3.org/2000/svg" xml:space="preserve" width="134.233mm" height="84.728mm" version="1.1" style="shape-rendering:geometricPrecision; text-rendering:geometricPrecision; image-rendering:optimizeQuality; fill-rule:evenodd; clip-rule:evenodd"
viewBox="0 0 13423 8473"
 xmlns:xlink="http://www.w3.org/1999/xlink">
 <defs>
  <style type="text/css">
   <![CDATA[
    .fil0 {fill:#E6E6E6;fill-rule:nonzero}
   ]]>
  </style>
 </defs>
 <g id="__x0023_Layer_x0020_1">
  <metadata id="CorelCorpID_0Corel-Layer"/>
  <g id="_1816162965424">
   <g>
    <path class="fil0" d="M7481 4579c0,2026 -1643,3669 -3669,3669 -2026,0 -3669,-1643 -3669,-3669 0,-2026 1643,-3669 3669,-3669 2026,0 3669,1643 3669,3669z"/>
   </g>
   <g>
    <path class="fil0" d="M9986 3944c0,2026 -1643,3669 -3669,3669 -2026,0 -3669,-1643 -3669,-3669 0,-2026 1643,-3669 3669,-3669 2026,0 3669,1643 3669,3669z"/>
   </g>
   <g>
    <path class="fil0" d="M11785 3697c0,1656 -1343,2999 -2999,2999 -1656,0 -2999,-1343 -2999,-2999 0,-1656 1343,-2999 2999,-2999 1656,0 2999,1343 2999,2999z"/>
   </g>
   <g>
    <path class="fil0" d="M13267 5778c0,1364 -1106,2469 -2469,2469 -1364,0 -2469,-1106 -2469,-2469 0,-1364 1106,-2469 2469,-2469 1364,0 2469,1106 2469,2469z"/>
   </g>
   <polygon class="fil0" points="10797,8248 3671,8248 3671,3908 10797,3908 "/>
  </g>
 </g>
</svg>
